Захват: Маршрут 300 / Chatifa: Kav 300 (Ротем Шамир / Rotem Shamir) [2018, Израиль, драма, HDTVRip] + Sub Rus, Heb + Original Heb :: RuTracker.org Главная Трекер Поиск Правила FAQ Группы Блог Зарубежное кино
Фильмы 2018 xxxx [ Выход ] раздачи |- по разделу все темы |- по разделу в google в wiki по info_hash ЛС (новых нет) · Профиль · Мои сообщения Входящие
Исходящие
Отправленные
Сохранённые Настройки
Мои раздачи
Будущие закачки Захват: Маршрут 300 / Chatifa: Kav 300 (Ротем Шамир / Rotem Shamir) [2018, Израиль, драма, HDTVRip] + Sub Rus, Heb + Original Heb Страницы: 1 Модераторы Главная
» Кино, Видео и ТВ
» Зарубежное кино » Фильмы 2018 Статистика раздачи Размер: 1.46 GB | Зарегистрирован: 15 дней | .torrent скачан: 1,414 раз Сиды: 35 Личи: 1 Добавить в «Будущие закачки» Мои сообщения В разделе Опции показа Опции показа Версия для печати Не показывать флаги аватары картинки званий картинки в сообщениях смайлики подписи Показывать спойлер открытым загружаемые картинки Автор Сообщение Ombranetta
Стаж: 5 лет 10 месяцев
Сообщений: 251 Ombranetta · 19-Май-18 15:56 (15 дней назад, ред. 19-Май-18 20:05) [Код] Захват: Маршрут 300 / Chatifa: Kav 300 Страна: Израиль
Жанр: драма
Год выпуска: 2018
Продолжительность: 01:13:21
Перевод: Субтитры
Субтитры: русские (softsub, ASS), иврит (hardsub)
Оригинальная аудиодорожка: иврит, арабский
Режиссер: Ротем Шамир / Rotem Shamir
В ролях: Даниэль Галь, Карлос Гарзузи, Кармель Реувни, Зив Палаг, Инив Леви, Ури Шила, Ули Штенберг, Алон Хамауй, Дан Мор, Яиль Коэн
Описание: Основанная на реальных событиях история захвата палестинскими террористами пассажирского автобуса маршрута 300, следовавшего из Тель-Авива в Ашкелон 12 апреля 1984 года.
Сэмпл: http://www.mediafire.com/file/24n5hmv19r3rvj5/Sample_Kav_300.avi
Качество видео: HDTVRip
Формат видео: AVI
Видео: XviD 624х352 16:9 25 кадров/сек 1194 Кбит/сек
Аудио: MP3 48 КГц 2 канала 128 Кбит/сек
Формат субтитров: softsub (ASS) Образец субтитров
Dialogue: 0,0:02:18.63,0:02:23.63,Default,,0,0,0,,Автобус маршрута 300...
Dialogue: 0,0:02:23.84,0:02:26.79,Default,,0,0,0,,Этот маршрут -\Nсвоего рода повторяющиеся встречи.
Dialogue: 0,0:02:26.80,0:02:29.63,Default,,0,0,0,,Много людей, знакомых с тобой\Nпо предыдущим поездкам,
Dialogue: 0,0:02:29.63,0:02:36.35,Default,,0,0,0,,но, в действительности,\Nты не знаком ни с кем из них.
Dialogue: 0,0:02:36.36,0:02:39.39,Default,,0,0,0,,В то время много арабов из Газы\Nработали в центре,
Dialogue: 0,0:02:39.40,0:02:44.39,Default,,0,0,0,,буквально, наводняли в Тель-Авиве рестораны,\Nстройки, работали на уборке улиц.
Dialogue: 0,0:02:44.40,0:02:48.31,Default,,0,0,0,,По четвергам автобус разрывался от арабов,\Nкоторые возвращались в конце недели в Газу.
Dialogue: 0,0:02:48.32,0:02:52.55,Default,,0,0,0,,Иногда, это было довольно тягостно, тесно.
Dialogue: 0,0:02:52.56,0:02:55.91,Default,,0,0,0,,В тот раз автобус не был полным,\Nно я не обратила внимания.
Dialogue: 0,0:02:55.91,0:02:57.71,Default,,0,0,0,,Наоборот, мне нравилось,\Nчто не так тесно,
Dialogue: 0,0:02:57.72,0:02:59.95,Default,,0,0,0,,и у меня в голове было другое.
Dialogue: 0,0:02:59.96,0:03:03.35,Default,,0,0,0,,Я купила один билет,\Nно, в сущности, нас было двое -
Dialogue: 0,0:03:03.36,0:03:08.36,Default,,0,0,0,,я и малыш или малышка.
Dialogue: 0,0:03:09.32,0:03:12.19,Default,,0,0,0,,Сможет ли Арик Шарон\Nповторить свой удивительный успех
Dialogue: 0,0:03:12.20,0:03:14.63,Default,,0,0,0,,в борьбе за лидерство в партии.
Dialogue: 0,0:03:14.63,0:03:17.63,Default,,0,0,0,,Люди Шамира и Давида Леви\Nутверждают, что он...
Dialogue: 0,0:03:17.63,0:03:19.79,Default,,0,0,0,,Водитель, переключи на "Решет гимель".
Dialogue: 0,0:03:19.80,0:03:24.43,Default,,0,0,0,,Кому охота сейчас слушать конференцию Ликуда?
Dialogue: 0,0:03:24.44,0:03:28.83,Default,,0,0,0,,Мы попросили прокомментировать\Nодного из них, Руби Ривлина из Иерусалима.
Dialogue: 0,0:03:28.84,0:03:31.31,Default,,0,0,0,,Руби Ривлин предполагает\Nбаллотироваться в Кнессет.
Dialogue: 0,0:03:31.32,0:03:36.32,Default,,0,0,0,,В ту ночь, когда я, как и весь народ Израиля,\Nожидал трансляцию из Кнессета... MediaInfo Общее
Полное имя : Захват - Маршрут 300.avi
Формат : AVI
Формат/Информация : Audio Video Interleave
Размер файла : 700 Мбайт
Продолжительность : 1 ч. 13 м.
Режим общего битрейта : Переменный
Общий поток : 1334 Кбит/сек
Программа кодирования : VirtualDubMod 1.5.10.2 (build 2540/release)
Библиотека кодирования : VirtualDubMod build 2540/release
Видео
Идентификатор : 0
Формат : MPEG-4 Visual
Профиль формата : Advanced Simple@L5
Настройки формата : BVOP2
Параметр BVOP формата : 2
Параметр QPel формата : Нет
Параметр GMC формата : Без точки перехода
Параметр матрицы формата : Default (H.263)
Идентификатор кодека : XVID
Идентификатор кодека/Подсказка : XviD
Продолжительность : 1 ч. 13 м.
Битрейт : 1194 Кбит/сек
Ширина : 624 пикселя
Высота : 352 пикселя
Соотношение сторон : 16:9
Частота кадров : 25,000 кадров/сек
Цветовое пространство : YUV
Субдискретизация насыщенности : 4:2:0
Битовая глубина : 8 бит
Тип развёртки : Чересстрочная
Порядок развёртки : Нижнее поле первое
Метод сжатия : С потерями
Бит/(Пиксели*Кадры) : 0.217
Размер потока : 626 Мбайт (89%)
Библиотека кодирования : XviD 64
Аудио
Идентификатор : 1
Формат : MPEG Audio
Версия формата : Version 1
Профиль формата : Layer 3
Настройки формата : Joint stereo / MS Stereo
Идентификатор кодека : 55
Идентификатор кодека/Подсказка : MP3
Продолжительность : 1 ч. 13 м.
Вид битрейта : Переменный
Битрейт : 128 Кбит/сек
Каналы : 2 канала
Частота : 48,0 КГц
Частота кадров : 41,667 кадра/сек (1152 SPF)
Метод сжатия : С потерями
Размер потока : 66,7 Мбайт (10%)
Выравнивание : Соединение по промежуткам
Продолжительность промежутка : 24 мс. (0,60 видеокадр)
Время предзагрузки промежутка : 474 мс.
Библиотека кодирования : LAME3.90.
Настройки программы : -m j -V 4 -q 2 -lowpass 17.6 --abr 128 Скриншот c названием фильма Скриншоты Сообщения из этой темы [102 шт.] были выделены в отдельную тему Выделено из: Захват: Маршрут 300 / Chatifa: Kav 300 (Ротем Шамир / Rotem Shamir) [2018, Израиль, драма, HDTVRip] + Sub Rus, Heb + Original Heb [5563848]
xfiles Как качать и Как раздавать
Правила, инструкции, FAQ-и Зарегистрирован: 19-Май-18 15:56
Скачан: 1,414 раз Скачать .torrent
14 KB Тип: обычная Статус: √ проверено Размер: 1.46 GB · B1C95EB63BB00A1A31A29FEE1EA6D9021D048A0D Если покраснели раздачи или не учитывается статистика - установите Rutracker Proxy Свернуть поддиректории
Развернуть
Переключить Увел./умен. окно загружается... Последние поблагодарившие [Профиль] [ЛС] Главная
» Кино, Видео и ТВ
» Зарубежное кино » Фильмы 2018 Условия использования · Реклама на сайте · Для правообладателей · Для прессы · Для провайдеров · Блог · Торрентопедия · Кому задать вопрос Rutracker Online · Авторские раздачи · Конкурсы · Новости в сети · Новости "Хранителей" и "Антикваров" · Случайная раздача Администрация · Модераторы · Техническая помощь · Редакторы Wiki · IRC канал Loading...
Error Показывать по клику
Показывать по наведению